<svg xmlns="http://www.w3.org/2000/svg" width="1400" height="250" viewBox="0 0 1400 250" role="img" aria-label="CredScan project plate"><style>@media (prefers-reduced-motion: no-preference){.motif-credscan .motion{animation:credscan-orbit 16s linear infinite;transform-box:fill-box;transform-origin:center}@keyframes credscan-orbit{to{transform:rotate(360deg)}}}</style><defs><clipPath id="motif"><rect x="980" y="38" width="376" height="172"/></clipPath></defs><rect width="1400" height="250" fill="#0b1019"/><path d="M44 36h1312M44 214h1312" stroke="#e8ebf0" opacity=".2"/><g class="labels"><text x="46" y="84" fill="#ff7254" font-family="monospace" font-size="16">02 / SOURCE STUDY</text><text x="46" y="154" fill="#f4f4ee" font-family="Arial,Helvetica,sans-serif" font-size="44" font-weight="800">CredScan</text><text x="48" y="190" fill="#bfc5d0" font-family="Arial,Helvetica,sans-serif" font-size="20">MCP secret scanning / Python</text></g><g class="motif motif-credscan" clip-path="url(#motif)"><g class="motion"><ellipse cx="1168" cy="124.0" rx="115.0" ry="45.0" fill="none" stroke="#e8ebf0" stroke-width=".65" opacity=".45" transform="rotate(0.0 1168 124)"/><ellipse cx="1168" cy="124.3" rx="114.0" ry="45.0" fill="none" stroke="#e8ebf0" stroke-width=".65" opacity=".45" transform="rotate(3.8 1168 124)"/><ellipse cx="1168" cy="124.7" rx="112.9" ry="45.1" fill="none" stroke="#e8ebf0" stroke-width=".65" opacity=".45" transform="rotate(7.5 1168 124)"/><ellipse cx="1168" cy="125.0" rx="111.9" ry="45.2" fill="none" stroke="#e8ebf0" stroke-width=".65" opacity=".45" transform="rotate(11.2 1168 124)"/><ellipse cx="1168" cy="125.3" rx="110.9" ry="45.3" fill="none" stroke="#e8ebf0" stroke-width=".65" opacity=".45" transform="rotate(15.0 1168 124)"/><ellipse cx="1168" cy="125.6" rx="109.9" ry="45.5" fill="none" stroke="#e8ebf0" stroke-width=".65" opacity=".45" transform="rotate(18.8 1168 124)"/><ellipse cx="1168" cy="125.9" rx="108.9" ry="45.8" fill="none" stroke="#e8ebf0" stroke-width=".65" opacity=".45" transform="rotate(22.5 1168 124)"/><ellipse cx="1168" cy="126.2" rx="107.9" ry="46.0" fill="none" stroke="#e8ebf0" stroke-width=".65" opacity=".45" transform="rotate(26.2 1168 124)"/><ellipse cx="1168" cy="126.5" rx="107.0" ry="46.3" fill="none" stroke="#e8ebf0" stroke-width=".65" opacity=".45" transform="rotate(30.0 1168 124)"/><ellipse cx="1168" cy="126.8" rx="106.1" ry="46.7" fill="none" stroke="#e8ebf0" stroke-width=".65" opacity=".45" transform="rotate(33.8 1168 124)"/><ellipse cx="1168" cy="127.0" rx="105.3" ry="47.1" fill="none" stroke="#e8ebf0" stroke-width=".65" opacity=".45" transform="rotate(37.5 1168 124)"/><ellipse cx="1168" cy="127.3" rx="104.5" ry="47.5" fill="none" stroke="#e8ebf0" stroke-width=".65" opacity=".45" transform="rotate(41.2 1168 124)"/><ellipse cx="1168" cy="127.5" rx="103.7" ry="47.9" fill="none" stroke="#e8ebf0" stroke-width=".65" opacity=".45" transform="rotate(45.0 1168 124)"/><ellipse cx="1168" cy="127.8" rx="103.0" ry="48.4" fill="none" stroke="#e8ebf0" stroke-width=".65" opacity=".45" transform="rotate(48.8 1168 124)"/><ellipse cx="1168" cy="128.0" rx="102.3" ry="48.9" fill="none" stroke="#e8ebf0" stroke-width=".65" opacity=".45" transform="rotate(52.5 1168 124)"/><ellipse cx="1168" cy="128.2" rx="101.7" ry="49.4" fill="none" stroke="#e8ebf0" stroke-width=".65" opacity=".45" transform="rotate(56.2 1168 124)"/><ellipse cx="1168" cy="128.3" rx="101.1" ry="50.0" fill="none" stroke="#e8ebf0" stroke-width=".65" opacity=".45" transform="rotate(60.0 1168 124)"/><ellipse cx="1168" cy="128.5" rx="100.7" ry="50.6" fill="none" stroke="#e8ebf0" stroke-width=".65" opacity=".45" transform="rotate(63.8 1168 124)"/><ellipse cx="1168" cy="128.6" rx="100.2" ry="51.2" fill="none" stroke="#e8ebf0" stroke-width=".65" opacity=".45" transform="rotate(67.5 1168 124)"/><ellipse cx="1168" cy="128.7" rx="99.8" ry="51.8" fill="none" stroke="#e8ebf0" stroke-width=".65" opacity=".45" transform="rotate(71.2 1168 124)"/><ellipse cx="1168" cy="128.8" rx="99.5" ry="52.4" fill="none" stroke="#e8ebf0" stroke-width=".65" opacity=".45" transform="rotate(75.0 1168 124)"/><ellipse cx="1168" cy="128.9" rx="99.3" ry="53.0" fill="none" stroke="#e8ebf0" stroke-width=".65" opacity=".45" transform="rotate(78.8 1168 124)"/><ellipse cx="1168" cy="129.0" rx="99.1" ry="53.7" fill="none" stroke="#e8ebf0" stroke-width=".65" opacity=".45" transform="rotate(82.5 1168 124)"/><ellipse cx="1168" cy="129.0" rx="99.0" ry="54.3" fill="none" stroke="#e8ebf0" stroke-width=".65" opacity=".45" transform="rotate(86.2 1168 124)"/><ellipse cx="1168" cy="129.0" rx="99.0" ry="55.0" fill="none" stroke="#e8ebf0" stroke-width=".65" opacity=".45" transform="rotate(90.0 1168 124)"/><ellipse cx="1168" cy="129.0" rx="99.0" ry="54.3" fill="none" stroke="#e8ebf0" stroke-width=".65" opacity=".45" transform="rotate(93.8 1168 124)"/><ellipse cx="1168" cy="129.0" rx="99.1" ry="53.7" fill="none" stroke="#e8ebf0" stroke-width=".65" opacity=".45" transform="rotate(97.5 1168 124)"/><ellipse cx="1168" cy="128.9" rx="99.3" ry="53.0" fill="none" stroke="#e8ebf0" stroke-width=".65" opacity=".45" transform="rotate(101.2 1168 124)"/><ellipse cx="1168" cy="128.8" rx="99.5" ry="52.4" fill="none" stroke="#e8ebf0" stroke-width=".65" opacity=".45" transform="rotate(105.0 1168 124)"/><ellipse cx="1168" cy="128.7" rx="99.8" ry="51.8" fill="none" stroke="#e8ebf0" stroke-width=".65" opacity=".45" transform="rotate(108.8 1168 124)"/><ellipse cx="1168" cy="128.6" rx="100.2" ry="51.2" fill="none" stroke="#e8ebf0" stroke-width=".65" opacity=".45" transform="rotate(112.5 1168 124)"/><ellipse cx="1168" cy="128.5" rx="100.7" ry="50.6" fill="none" stroke="#e8ebf0" stroke-width=".65" opacity=".45" transform="rotate(116.2 1168 124)"/><ellipse cx="1168" cy="128.3" rx="101.1" ry="50.0" fill="none" stroke="#e8ebf0" stroke-width=".65" opacity=".45" transform="rotate(120.0 1168 124)"/><ellipse cx="1168" cy="128.2" rx="101.7" ry="49.4" fill="none" stroke="#e8ebf0" stroke-width=".65" opacity=".45" transform="rotate(123.8 1168 124)"/><ellipse cx="1168" cy="128.0" rx="102.3" ry="48.9" fill="none" stroke="#e8ebf0" stroke-width=".65" opacity=".45" transform="rotate(127.5 1168 124)"/><ellipse cx="1168" cy="127.8" rx="103.0" ry="48.4" fill="none" stroke="#e8ebf0" stroke-width=".65" opacity=".45" transform="rotate(131.2 1168 124)"/><ellipse cx="1168" cy="127.5" rx="103.7" ry="47.9" fill="none" stroke="#e8ebf0" stroke-width=".65" opacity=".45" transform="rotate(135.0 1168 124)"/><ellipse cx="1168" cy="127.3" rx="104.5" ry="47.5" fill="none" stroke="#e8ebf0" stroke-width=".65" opacity=".45" transform="rotate(138.8 1168 124)"/><ellipse cx="1168" cy="127.0" rx="105.3" ry="47.1" fill="none" stroke="#e8ebf0" stroke-width=".65" opacity=".45" transform="rotate(142.5 1168 124)"/><ellipse cx="1168" cy="126.8" rx="106.1" ry="46.7" fill="none" stroke="#e8ebf0" stroke-width=".65" opacity=".45" transform="rotate(146.2 1168 124)"/><ellipse cx="1168" cy="126.5" rx="107.0" ry="46.3" fill="none" stroke="#e8ebf0" stroke-width=".65" opacity=".45" transform="rotate(150.0 1168 124)"/><ellipse cx="1168" cy="126.2" rx="107.9" ry="46.0" fill="none" stroke="#e8ebf0" stroke-width=".65" opacity=".45" transform="rotate(153.8 1168 124)"/><ellipse cx="1168" cy="125.9" rx="108.9" ry="45.8" fill="none" stroke="#e8ebf0" stroke-width=".65" opacity=".45" transform="rotate(157.5 1168 124)"/><ellipse cx="1168" cy="125.6" rx="109.9" ry="45.5" fill="none" stroke="#e8ebf0" stroke-width=".65" opacity=".45" transform="rotate(161.2 1168 124)"/><ellipse cx="1168" cy="125.3" rx="110.9" ry="45.3" fill="none" stroke="#e8ebf0" stroke-width=".65" opacity=".45" transform="rotate(165.0 1168 124)"/><ellipse cx="1168" cy="125.0" rx="111.9" ry="45.2" fill="none" stroke="#e8ebf0" stroke-width=".65" opacity=".45" transform="rotate(168.8 1168 124)"/><ellipse cx="1168" cy="124.7" rx="112.9" ry="45.1" fill="none" stroke="#e8ebf0" stroke-width=".65" opacity=".45" transform="rotate(172.5 1168 124)"/><ellipse cx="1168" cy="124.3" rx="114.0" ry="45.0" fill="none" stroke="#e8ebf0" stroke-width=".65" opacity=".45" transform="rotate(176.2 1168 124)"/><ellipse cx="1168" cy="124" rx="88" ry="42" fill="none" stroke="#ff7254" stroke-width="1.2"/></g></g></svg>